<svg xmlns="http://www.w3.org/2000/svg" viewBox="0 0 32 32">
  <rect width="32" height="32" rx="6" fill="#1e1b4b"/>
  <!-- Castle tower -->
  <path d="M11 8h10v3h-3v-2h-1v2h-2v-2h-1v2h-3z" fill="#94a3b8"/>
  <!-- Shield body -->
  <path d="M9 11h14v10c0 4-7 7-7 7s-7-3-7-7z" fill="#60a5fa" stroke="#3b82f6" stroke-width="0.7"/>
  <!-- Shield inner -->
  <path d="M12 14h8v6c0 2.5-4 4.5-4 4.5s-4-2-4-4.5z" fill="#3b82f6"/>
  <!-- Monster peeking left -->
  <circle cx="7" cy="18" r="4" fill="#4ade80"/>
  <circle cx="6" cy="17" r="1" fill="white"/>
  <circle cx="6" cy="17" r="0.5" fill="#1e1b4b"/>
  <path d="M5 19.5q1 1 3 0" stroke="#1e1b4b" stroke-width="0.5" fill="none"/>
  <!-- Monster horn -->
  <path d="M6 14l-1-2 2 1z" fill="#4ade80"/>
</svg>
